
<svg width="104" height="43" viewBox="0 0 104 43" fill="none" xmlns="http://www.w3.org/2000/svg">
<path d="M4.94366 13.2204L4.92387 21.9598H6.11581C8.20059 21.9598 9.75098 21.6035 10.2084 21.1461C10.4261 21.3836 10.4855 21.6629 10.4855 22.0389C10.4855 23.2902 9.25398 24.3238 5.79913 24.3238C1.94624 24.3238 1.5284 24.1457 1.37006 23.3298C1.31069 22.813 1.29089 21.245 1.29089 18.5423V14.0143C1.29089 13.5371 1.05339 13.2402 0 13.3391C0 12.2264 0.89285 11.2939 2.75992 11.2939C4.22894 11.2939 4.94366 11.8503 4.94366 13.2204Z" fill="#E3262D"/>
<path d="M15.0332 24.4425C11.8555 24.4425 9.83008 23.0724 9.83008 19.7957C9.83008 16.3408 11.8753 14.333 15.3323 14.333C18.5299 14.333 20.4761 15.7624 20.4761 19.0612C20.4761 22.7139 18.2506 24.4425 15.0332 24.4425ZM15.0926 16.6575C13.7621 16.6575 13.3443 17.5899 13.3443 19.578C13.3443 21.544 13.8017 22.2587 15.2312 22.2587C16.4627 22.2587 17.0389 21.4846 17.0389 19.3383C17.0389 17.6493 16.6232 16.6575 15.0926 16.6575Z" fill="#E3262D"/>
<path d="M21.82 21.6607C21.82 19.7145 21.8596 16.7743 21.8596 16.7743H20.6083C20.4896 16.5961 20.4302 16.3366 20.4302 16.1189C20.4302 15.3448 20.8876 14.5311 21.9608 14.4498C22.0597 13.0599 22.7745 11.8086 24.4634 11.8086C24.7405 11.8086 25.0792 11.8482 25.376 11.9274C25.2771 12.7608 25.2573 13.6559 25.2573 14.5091H25.6157C26.6889 14.5091 27.3641 14.4102 27.7995 14.1507C27.9974 14.408 28.0766 14.7269 28.0766 15.0435C28.0766 16.2355 26.944 16.7919 26.0314 16.7919H25.2573V21.1813C25.2573 21.7773 25.475 21.9554 26.1501 21.9554C26.9242 21.9554 27.6785 21.6783 28.3339 21.2605C28.4922 21.498 28.5714 21.7377 28.5714 22.094C28.5714 23.4047 27.2211 24.4185 25.1363 24.4185C22.8316 24.4229 21.82 23.7081 21.82 21.6607Z" fill="#E3262D"/>
<path d="M29.5498 21.6607C29.5498 19.7145 29.5894 16.7743 29.5894 16.7743H28.338C28.2193 16.5961 28.1599 16.3366 28.1599 16.1189C28.1599 15.3448 28.6173 14.5311 29.6905 14.4498C29.7895 13.0599 30.5042 11.8086 32.1931 11.8086C32.4702 11.8086 32.8089 11.8482 33.1058 11.9274C33.0068 12.7608 32.987 13.6559 32.987 14.5091H33.3455C34.4187 14.5091 35.0938 14.4102 35.5292 14.1507C35.7271 14.408 35.8063 14.7269 35.8063 15.0435C35.8063 16.2355 34.6738 16.7919 33.7611 16.7919H32.987V21.1813C32.987 21.7773 33.2047 21.9554 33.8799 21.9554C34.654 21.9554 35.4083 21.6783 36.0636 21.2605C36.222 21.498 36.3011 21.7377 36.3011 22.094C36.3011 23.4047 34.9509 24.4185 32.8661 24.4185C30.5636 24.4229 29.5498 23.7081 29.5498 21.6607Z" fill="#E3262D"/>
<path d="M41.5572 24.4425C38.3794 24.4425 36.354 23.0724 36.354 19.7957C36.354 16.3408 38.3992 14.333 41.8563 14.333C45.0538 14.333 47 15.7624 47 19.0612C47 22.7139 44.7745 24.4425 41.5572 24.4425ZM41.6165 16.6575C40.2861 16.6575 39.8682 17.5899 39.8682 19.578C39.8682 21.544 40.3257 22.2587 41.7551 22.2587C42.9866 22.2587 43.5628 21.4846 43.5628 19.3383C43.565 17.6493 43.1471 16.6575 41.6165 16.6575Z" fill="#E3262D"/>
<path d="M36.3691 3.36182C36.3691 3.36182 37.1344 3.85662 37.4753 4.1689C37.4753 4.1689 38.7486 3.98857 39.0829 3.98198C39.0829 3.98198 38.9993 4.50316 38.3242 5.31904C38.3242 5.31904 38.6452 6.13273 38.4627 6.86504C38.4627 6.86504 37.7876 6.32846 37.0838 6.08435C37.0838 6.08435 36.0678 6.43841 35.3641 6.48019C35.3641 6.48019 35.6918 5.87543 35.8017 5.54776C35.8017 5.54776 34.9661 5.1717 34.6736 5.07494L36.1778 4.53176C36.18 4.53176 36.4879 3.97318 36.3691 3.36182Z" fill="#E3262D"/>
<path d="M34.2624 1.354C34.2624 1.354 34.6429 1.60031 34.8144 1.75645C34.8144 1.75645 35.4478 1.66628 35.6149 1.66408C35.6149 1.66408 35.5731 1.92358 35.2367 2.33042C35.2367 2.33042 35.395 2.73506 35.307 3.10012C35.307 3.10012 34.9706 2.83402 34.6209 2.71307C34.6209 2.71307 34.1151 2.88901 33.7654 2.911C33.7654 2.911 33.9282 2.60971 33.9831 2.44697C33.9831 2.44697 33.5675 2.26004 33.4224 2.21166L34.1701 1.94117C34.1701 1.93677 34.3218 1.65968 34.2624 1.354Z" fill="#E3262D"/>
<path d="M38.4035 1C38.4035 1 38.8785 1.30787 39.0918 1.5014C39.0918 1.5014 39.8835 1.38925 40.0902 1.38485C40.0902 1.38485 40.0374 1.71031 39.6196 2.21612C39.6196 2.21612 39.8175 2.72192 39.7054 3.17494C39.7054 3.17494 39.2853 2.84288 38.8499 2.69114C38.8499 2.69114 38.2187 2.91105 37.7833 2.93744C37.7833 2.93744 37.9856 2.56139 38.056 2.35907C38.056 2.35907 37.537 2.12595 37.3567 2.06438L38.2913 1.72791C38.2869 1.72572 38.4761 1.38045 38.4035 1Z" fill="#E3262D"/>
<path d="M41.9088 2.92627C41.9088 2.92627 42.2189 3.1264 42.3574 3.25175C42.3574 3.25175 42.872 3.17917 43.0084 3.17477C43.0084 3.17477 42.9754 3.3859 42.7005 3.71577C42.7005 3.71577 42.8302 4.04564 42.7577 4.34033C42.7577 4.34033 42.485 4.1226 42.1991 4.02584C42.1991 4.02584 41.7878 4.16879 41.5041 4.18639C41.5041 4.18639 41.6361 3.94227 41.6823 3.80813C41.6823 3.80813 41.3436 3.65639 41.2271 3.6168L41.834 3.39689C41.8318 3.39909 41.9572 3.17477 41.9088 2.92627Z" fill="#E3262D"/>
<path d="M34.3944 7.48096C34.3944 7.48096 34.7067 7.68328 34.8474 7.81083C34.8474 7.81083 35.3664 7.73826 35.5028 7.73386C35.5028 7.73386 35.4698 7.94718 35.1927 8.27925C35.1927 8.27925 35.3224 8.61131 35.2499 8.9104C35.2499 8.9104 34.975 8.69048 34.6869 8.59152C34.6869 8.59152 34.2712 8.73667 33.9853 8.75207C33.9853 8.75207 34.1195 8.50575 34.1635 8.37161C34.1635 8.37161 33.8226 8.21766 33.7039 8.17808L34.3174 7.95597C34.3174 7.95816 34.4428 7.73166 34.3944 7.48096Z" fill="#E3262D"/>
<path d="M37.6096 7.56006C37.6096 7.56006 38.8873 8.38473 39.4569 8.90593C39.4569 8.90593 41.5812 8.60685 42.1376 8.59146C42.1376 8.59146 41.9991 9.46452 40.8731 10.8214C40.8731 10.8214 41.4075 12.1804 41.104 13.3988C41.104 13.3988 39.9781 12.5037 38.8037 12.0991C38.8037 12.0991 37.1082 12.6907 35.9382 12.7588C35.9382 12.7588 36.4836 11.7494 36.6684 11.2018C36.6684 11.2018 35.2763 10.5773 34.7881 10.4123L37.2951 9.50851C37.2951 9.5107 37.8053 8.58266 37.6096 7.56006Z" fill="#E3262D"/>
<path d="M40.8796 6.02734C40.8796 6.02734 41.6405 6.51774 41.9792 6.83002C41.9792 6.83002 43.2437 6.6519 43.5758 6.6431C43.5758 6.6431 43.4944 7.16209 42.8214 7.97137C42.8214 7.97137 43.1381 8.78067 42.96 9.50638C42.96 9.50638 42.2893 8.97419 41.5899 8.73228C41.5899 8.73228 40.5805 9.08414 39.8834 9.12592C39.8834 9.12592 40.2089 8.52556 40.3188 8.19789C40.3188 8.19789 39.4897 7.82624 39.1995 7.72727L40.6927 7.18848C40.6927 7.18848 40.9962 6.63431 40.8796 6.02734Z" fill="#E3262D"/>
<path d="M11.2948 27.6514C13.0233 27.6514 13.9843 28.5486 13.9843 30.717C13.9843 33.0282 12.7242 34.2378 10.6197 34.2378C10.1644 34.2378 9.60586 34.185 9.38594 34.1212C9.38594 35.6276 9.46291 36.316 9.68503 36.835C9.35955 37.134 8.82736 37.2902 8.36115 37.2902C7.47709 37.2902 7.10104 36.9009 7.10104 36.173L7.12743 29.4569C7.12743 29.1446 6.97129 28.951 6.28296 29.0148C6.28296 28.2869 6.86793 27.6778 8.08845 27.6778C8.94612 27.6778 9.34856 28.0406 9.34856 28.9379C9.59266 28.0802 10.27 27.6514 11.2948 27.6514ZM9.38594 30.055V32.7314C9.72461 32.8083 9.91814 32.8479 10.3602 32.8479C11.3344 32.8479 11.7632 32.2256 11.7632 30.9655C11.7632 29.8615 11.2574 29.2501 10.204 29.2501C9.64544 29.2501 9.38594 29.4964 9.38594 30.055Z" fill="#B3DB11"/>
<path d="M14.7913 28.5751C14.7781 27.1324 14.7143 26.5607 14.5054 26.0285C14.8308 25.7294 15.3498 25.5732 15.8183 25.5732C16.7155 25.5732 17.1179 25.9625 17.1179 26.7036V32.4587C17.1179 32.771 17.2741 32.9514 17.9492 32.8876C17.9492 33.6155 17.3643 34.2246 16.1437 34.2246C15.3256 34.2246 14.8308 33.8992 14.8308 33.0547L14.7913 28.5751Z" fill="#B3DB11"/>
<path d="M25.8375 32.8877C25.8375 33.6157 25.2525 34.2248 24.032 34.2248C23.1743 34.2248 22.7719 33.8488 22.7719 32.9515C22.5256 33.8092 21.8636 34.238 20.8234 34.238C19.4204 34.238 18.5122 33.719 18.5122 32.1994C18.5122 31.6276 18.5649 30.2774 18.5649 29.4593C18.5649 29.147 18.4088 28.9535 17.7205 29.0173C17.7205 28.2893 18.3054 27.6802 19.526 27.6802C20.344 27.6802 20.7993 27.9001 20.7993 28.7336C20.7993 29.3185 20.7729 31.0581 20.7729 31.5133C20.7729 32.2676 21.0324 32.6436 21.9164 32.6436C22.475 32.6436 22.7345 32.3973 22.7345 31.8388V30.0465C22.7345 29.3053 22.6949 28.4235 22.6047 27.9419C22.8642 27.7857 23.2799 27.6824 23.6955 27.6824C24.7093 27.6824 25.0326 28.0848 25.0326 29.4615C25.0326 30.7348 24.993 32.4611 24.993 32.4611C24.993 32.7712 25.1492 32.9515 25.8375 32.8877Z" fill="#B3DB11"/>
<path d="M29.6268 32.4325C29.6268 32.1598 29.5498 32.0565 28.4326 31.8212C26.9768 31.5221 26.3149 31.0427 26.3149 29.9497C26.3149 28.7028 27.2495 27.6494 29.2903 27.6494C31.0694 27.6494 31.7182 28.4411 31.7182 29.169C31.7182 29.5583 31.4982 29.9475 31.0298 30.13C30.6538 29.5978 29.7433 29.2724 28.8615 29.2724C28.5228 29.2724 28.3931 29.4549 28.3931 29.622C28.3931 29.8947 28.5096 29.9475 29.3805 30.141C31.3025 30.5963 31.7973 30.9723 31.7973 32.0895C31.7973 33.3232 31.0826 34.2204 28.9406 34.2204C27.3683 34.2204 26.1082 33.8444 26.1082 32.8174C26.1082 32.4149 26.3039 32.0631 26.6931 31.7904C27.0186 32.2456 28.0566 32.7646 29.2265 32.7646C29.5234 32.7712 29.6268 32.5887 29.6268 32.4325Z" fill="#B3DB11"/>
<path d="M34.3658 34.134C34.2911 33.9977 34.2427 33.813 34.2427 33.6414C34.2427 33.074 34.6495 32.6694 36.4462 32.643V28.0248C35.9162 28.0996 35.4236 28.678 35.3137 29.0342C34.8584 28.9243 34.5879 28.5416 34.5879 28.0732C34.5879 27.1869 36.0284 26.127 37.5678 26.127C38.3815 26.127 38.5662 26.3249 38.5662 26.7185V32.6298C39.6262 32.6298 40.0572 32.5682 40.3145 32.3967C40.4003 32.5067 40.4508 32.6672 40.4508 32.8519C40.4508 33.4809 39.934 34.1318 38.8367 34.1318H34.3658V34.134Z" fill="#E3262D"/>
</svg>
