
<svg width="103" height="43" viewBox="0 0 103 43" fill="none" xmlns="http://www.w3.org/2000/svg">
<path d="M4.94366 13.3525L4.92387 22.1859H6.11581C8.20059 22.1859 9.75098 21.8258 10.2084 21.3634C10.4261 21.6035 10.4855 21.8858 10.4855 22.2659C10.4855 23.5307 9.25398 24.5754 5.79913 24.5754C1.94624 24.5754 1.5284 24.3953 1.37006 23.5707C1.31069 23.0483 1.29089 21.4634 1.29089 18.7316V14.1549C1.29089 13.6725 1.05339 13.3724 0 13.4725C0 12.3477 0.89285 11.4053 2.75992 11.4053C4.22894 11.4053 4.94366 11.9676 4.94366 13.3525Z" fill="#E3262D"/>
<path d="M15.0332 24.6953C11.8555 24.6953 9.83008 23.3105 9.83008 19.9985C9.83008 16.5043 11.8753 14.4771 15.3323 14.4771C18.5299 14.4771 20.4761 15.9219 20.4761 19.2561C20.4761 22.9481 18.2506 24.6953 15.0332 24.6953ZM15.0926 16.8243C13.7621 16.8243 13.3443 17.769 13.3443 19.7762C13.3443 21.7634 13.8017 22.4858 15.2312 22.4858C16.4627 22.4858 17.0389 21.7034 17.0389 19.5339C17.0389 17.829 16.6232 16.8243 15.0926 16.8243Z" fill="#E3262D"/>
<path d="M21.82 21.8835C21.82 19.9163 21.8596 16.9444 21.8596 16.9444H20.6083C20.4896 16.7643 20.4302 16.502 20.4302 16.282C20.4302 15.4996 20.8876 14.6749 21.9608 14.5949C22.0597 13.1901 22.7745 11.9253 24.4634 11.9253C24.7405 11.9253 25.0792 11.9653 25.376 12.0453C25.2771 12.8878 25.2573 13.7925 25.2573 14.6549H25.6157C26.6889 14.6549 27.3641 14.5549 27.7995 14.2926C27.9974 14.5527 28.0766 14.8749 28.0766 15.195C28.0766 16.3998 26.944 16.9622 26.0314 16.9622H25.2573V21.3989C25.2573 22.0013 25.475 22.1813 26.1501 22.1813C26.9242 22.1813 27.6785 21.9012 28.3339 21.4789C28.4922 21.719 28.5714 21.9612 28.5714 22.3213C28.5714 23.6461 27.2211 24.6708 25.1363 24.6708C22.8316 24.6753 21.82 23.9529 21.82 21.8835Z" fill="#E3262D"/>
<path d="M29.55 21.8835C29.55 19.9163 29.5896 16.9444 29.5896 16.9444H28.3383C28.2195 16.7643 28.1602 16.502 28.1602 16.282C28.1602 15.4996 28.6176 14.6749 29.6908 14.5949C29.7897 13.1901 30.5044 11.9253 32.1934 11.9253C32.4705 11.9253 32.8091 11.9653 33.106 12.0453C33.0071 12.8878 32.9873 13.7925 32.9873 14.6549H33.3457C34.4189 14.6549 35.094 14.5549 35.5295 14.2926C35.7274 14.5527 35.8066 14.8749 35.8066 15.195C35.8066 16.3998 34.674 16.9622 33.7614 16.9622H32.9873V21.3989C32.9873 22.0013 33.205 22.1813 33.8801 22.1813C34.6542 22.1813 35.4085 21.9012 36.0639 21.4789C36.2222 21.719 36.3014 21.9612 36.3014 22.3213C36.3014 23.6461 34.9511 24.6708 32.8663 24.6708C30.5638 24.6753 29.55 23.9529 29.55 21.8835Z" fill="#E3262D"/>
<path d="M41.5569 24.6953C38.3792 24.6953 36.3538 23.3105 36.3538 19.9985C36.3538 16.5043 38.399 14.4771 41.856 14.4771C45.0536 14.4771 46.9998 15.9219 46.9998 19.2561C46.9998 22.9481 44.7743 24.6953 41.5569 24.6953ZM41.6163 16.8243C40.2858 16.8243 39.868 17.769 39.868 19.7762C39.868 21.7634 40.3254 22.4858 41.7548 22.4858C42.9864 22.4858 43.5625 21.7034 43.5625 19.5339C43.5647 17.829 43.1469 16.8243 41.6163 16.8243Z" fill="#E3262D"/>
<path d="M36.3694 3.3877C36.3694 3.3877 37.1347 3.88784 37.4755 4.20347C37.4755 4.20347 38.7488 4.02121 39.0831 4.01454C39.0831 4.01454 38.9995 4.54133 38.3244 5.36599C38.3244 5.36599 38.6455 6.18844 38.4629 6.92863C38.4629 6.92863 37.7878 6.38626 37.0841 6.13953C37.0841 6.13953 36.0681 6.49741 35.3644 6.53964C35.3644 6.53964 35.692 5.92837 35.802 5.59717C35.802 5.59717 34.9663 5.21707 34.6738 5.11927L36.178 4.57024C36.1802 4.57024 36.4881 4.00563 36.3694 3.3877Z" fill="#E3262D"/>
<path d="M34.2627 1.35791C34.2627 1.35791 34.6431 1.60688 34.8147 1.7647C34.8147 1.7647 35.448 1.67356 35.6151 1.67133C35.6151 1.67133 35.5734 1.93363 35.2369 2.34485C35.2369 2.34485 35.3952 2.75384 35.3073 3.12283C35.3073 3.12283 34.9708 2.85387 34.6211 2.73161C34.6211 2.73161 34.1153 2.90944 33.7657 2.93167C33.7657 2.93167 33.9284 2.62715 33.9834 2.46266C33.9834 2.46266 33.5678 2.27371 33.4226 2.22481L34.1703 1.95141C34.1703 1.94696 34.3221 1.66688 34.2627 1.35791Z" fill="#E3262D"/>
<path d="M38.4037 1C38.4037 1 38.8787 1.3112 39.0921 1.50681C39.0921 1.50681 39.8837 1.39344 40.0905 1.38899C40.0905 1.38899 40.0377 1.71797 39.6198 2.22922C39.6198 2.22922 39.8178 2.74046 39.7056 3.19835C39.7056 3.19835 39.2856 2.86272 38.8501 2.70935C38.8501 2.70935 38.219 2.93163 37.7836 2.9583C37.7836 2.9583 37.9859 2.5782 38.0563 2.3737C38.0563 2.3737 37.5373 2.13809 37.3569 2.07586L38.2916 1.73576C38.2872 1.73354 38.4763 1.38454 38.4037 1Z" fill="#E3262D"/>
<path d="M41.909 2.94727C41.909 2.94727 42.2191 3.14954 42.3577 3.27624C42.3577 3.27624 42.8723 3.20289 43.0086 3.19844C43.0086 3.19844 42.9756 3.41182 42.7007 3.74524C42.7007 3.74524 42.8305 4.07868 42.7579 4.37654C42.7579 4.37654 42.4852 4.15647 42.1993 4.05867C42.1993 4.05867 41.7881 4.20314 41.5044 4.22093C41.5044 4.22093 41.6363 3.9742 41.6825 3.83861C41.6825 3.83861 41.3438 3.68524 41.2273 3.64523L41.8343 3.42295C41.8321 3.42517 41.9574 3.19844 41.909 2.94727Z" fill="#E3262D"/>
<path d="M34.3946 7.55078C34.3946 7.55078 34.7069 7.75528 34.8477 7.8842C34.8477 7.8842 35.3666 7.81083 35.503 7.80638C35.503 7.80638 35.47 8.02199 35.1929 8.35763C35.1929 8.35763 35.3227 8.6933 35.2501 8.9956C35.2501 8.9956 34.9752 8.77331 34.6871 8.67328C34.6871 8.67328 34.2715 8.81998 33.9856 8.83554C33.9856 8.83554 34.1197 8.58659 34.1637 8.451C34.1637 8.451 33.8229 8.2954 33.7041 8.25539L34.3177 8.03089C34.3177 8.03311 34.443 7.80418 34.3946 7.55078Z" fill="#E3262D"/>
<path d="M37.6098 7.63086C37.6098 7.63086 38.8875 8.46441 39.4571 8.99121C39.4571 8.99121 41.5815 8.6889 42.1378 8.67334C42.1378 8.67334 41.9993 9.5558 40.8733 10.9273C40.8733 10.9273 41.4077 12.301 41.1043 13.5324C41.1043 13.5324 39.9783 12.6277 38.804 12.2187C38.804 12.2187 37.1084 12.8167 35.9385 12.8856C35.9385 12.8856 36.4839 11.8653 36.6686 11.3118C36.6686 11.3118 35.2765 10.6805 34.7883 10.5138L37.2953 9.60026C37.2953 9.60248 37.8055 8.66446 37.6098 7.63086Z" fill="#E3262D"/>
<path d="M40.8798 6.08105C40.8798 6.08105 41.6408 6.57674 41.9794 6.89238C41.9794 6.89238 43.2439 6.71234 43.576 6.70345C43.576 6.70345 43.4946 7.22804 42.8217 8.04603C42.8217 8.04603 43.1384 8.86402 42.9602 9.59754C42.9602 9.59754 42.2895 9.05962 41.5902 8.81511C41.5902 8.81511 40.5808 9.17077 39.8836 9.213C39.8836 9.213 40.2091 8.60616 40.3191 8.27496C40.3191 8.27496 39.49 7.89933 39.1997 7.7993L40.6929 7.2547C40.6929 7.2547 40.9964 6.69455 40.8798 6.08105Z" fill="#E3262D"/>
<path d="M10.0082 27.938C11.7367 27.938 12.6977 28.8449 12.6977 31.0366C12.6977 33.3727 11.4376 34.5953 9.33304 34.5953C8.87782 34.5953 8.31924 34.5419 8.09932 34.4775C8.09932 36.0001 8.17629 36.6958 8.39841 37.2204C8.07293 37.5227 7.54074 37.6805 7.07233 37.6805C6.18827 37.6805 5.81222 37.2871 5.81222 36.5513L5.83861 29.7629C5.83861 29.4473 5.68247 29.2517 4.99414 29.3161C4.99414 28.5804 5.57911 27.9647 6.79963 27.9647C7.6573 27.9647 8.05974 28.3314 8.05974 29.2383C8.30604 28.3714 8.98118 27.938 10.0082 27.938ZM8.09932 30.3675V33.0727C8.43799 33.1505 8.63152 33.1905 9.07354 33.1905C10.0478 33.1905 10.4766 32.5614 10.4766 31.2877C10.4766 30.1719 9.97079 29.554 8.9174 29.554C8.35882 29.554 8.09932 29.8029 8.09932 30.3675Z" fill="#B3DB11"/>
<path d="M13.5049 28.8715C13.4917 27.4134 13.4279 26.8355 13.219 26.2975C13.5445 25.9952 14.0635 25.8374 14.5319 25.8374C15.4291 25.8374 15.8316 26.2308 15.8316 26.9799V32.797C15.8316 33.1126 15.9877 33.2949 16.6628 33.2304C16.6628 33.9662 16.0779 34.5819 14.8574 34.5819C14.0393 34.5819 13.5445 34.2529 13.5445 33.3994L13.5049 28.8715Z" fill="#B3DB11"/>
<path d="M24.5513 33.2304C24.5513 33.9661 23.9664 34.5819 22.7459 34.5819C21.8882 34.5819 21.4857 34.2018 21.4857 33.2948C21.2394 34.1617 20.5775 34.5952 19.5373 34.5952C18.1343 34.5952 17.226 34.0706 17.226 32.5346C17.226 31.9567 17.2788 30.5919 17.2788 29.765C17.2788 29.4494 17.1227 29.2538 16.4343 29.3183C16.4343 28.5825 17.0193 27.9668 18.2398 27.9668C19.0579 27.9668 19.5131 28.1891 19.5131 29.0315C19.5131 29.6228 19.4867 31.381 19.4867 31.8411C19.4867 32.6035 19.7462 32.9836 20.6303 32.9836C21.1889 32.9836 21.4484 32.7347 21.4484 32.1701V30.3585C21.4484 29.6094 21.4088 28.7181 21.3186 28.2313C21.5781 28.0735 21.9938 27.969 22.4094 27.969C23.4232 27.969 23.7465 28.3758 23.7465 29.7673C23.7465 31.0543 23.7069 32.7992 23.7069 32.7992C23.7069 33.1126 23.863 33.2948 24.5513 33.2304Z" fill="#B3DB11"/>
<path d="M28.3402 32.7701C28.3402 32.4945 28.2632 32.39 27.146 32.1522C25.6902 31.8499 25.0282 31.3653 25.0282 30.2606C25.0282 29.0003 25.9629 27.9355 28.0037 27.9355C29.7828 27.9355 30.4337 28.7358 30.4337 29.4715C30.4337 29.8649 30.2138 30.2584 29.7454 30.4429C29.3694 29.905 28.4589 29.576 27.5771 29.576C27.2384 29.576 27.1086 29.7605 27.1086 29.9294C27.1086 30.205 27.2252 30.2584 28.0961 30.454C30.0181 30.9141 30.5129 31.2942 30.5129 32.4234C30.5129 33.6704 29.7982 34.5773 27.654 34.5773C26.0816 34.5773 24.8215 34.1972 24.8215 33.1591C24.8215 32.7524 25.0173 32.3967 25.4065 32.1211C25.732 32.5812 26.77 33.1058 27.9399 33.1058C28.2368 33.1125 28.3402 32.928 28.3402 32.7701Z" fill="#B3DB11"/>
<path d="M38.9158 28.8381C38.9158 30.2073 38.2516 31.0786 35.7622 32.9591H37.4248C38.4847 32.9591 38.9158 32.8969 39.1731 32.7102C39.2588 32.8347 39.3094 32.9969 39.3094 33.1836C39.3094 33.8194 38.7926 34.4907 37.6953 34.4907H33.7676C33.4729 34.4907 33.2266 34.4906 33.1144 34.504C32.9671 34.3173 32.8923 33.9683 32.8923 33.7193C32.8923 33.3459 33.0023 33.2214 33.2486 33.0481C36.2416 30.8564 36.7958 30.2229 36.7958 29.1515C36.7958 28.4535 36.3516 28.0179 35.5401 28.0179C34.678 28.0179 34.0381 28.6158 33.8775 29.1626C33.3607 29.0137 33.176 28.6514 33.176 28.1045C33.176 27.3088 34.0755 26.3374 35.9601 26.3374C38.0053 26.3374 38.9158 27.531 38.9158 28.8381Z" fill="#019BA9"/>
</svg>
